<svg id="Capa_1" data-name="Capa 1" xmlns="http://www.w3.org/2000/svg" viewBox="0 0 287.83 310.67"><defs><style>.cls-1{fill:#1d1d1b;}.cls-2{fill:none;stroke:#1d1d1b;stroke-miterlimit:10;stroke-width:13px;}</style></defs><path class="cls-1" d="M155.87,138.52a16.74,16.74,0,0,1,4.7,8.25A26.21,26.21,0,0,1,160,159.9a39,39,0,0,1-6,12.81,19,19,0,0,1-3.79,3.91c-2.49,1.92-5.1,1.85-7.72.11a13.7,13.7,0,0,1-5.75-8.26c-2.19-8.77-1.28-17.18,3.4-25a17.2,17.2,0,0,1,6.34-6.25,7.1,7.1,0,0,1,7.42-.2c.59.34.77.66.46,1.28-1.08,2.17-2.07,4.39-3.22,6.52A35.48,35.48,0,0,0,147.11,155a22.8,22.8,0,0,0,3.07,16.2,2.85,2.85,0,0,0,.3.35c-.42-1.45-.85-2.77-1.17-4.11-1.15-4.79-.36-9.42,1.27-14,1.47-4.08,3-8.15,4.45-12.23C155.34,140.38,155.58,139.47,155.87,138.52Z"/><path class="cls-1" d="M184.6,222.14a83.77,83.77,0,0,1-32.25,11,81.77,81.77,0,0,1-32.41-2.52,83.44,83.44,0,0,1-29-14.9,89,89,0,0,1-22.12-25.82,89.75,89.75,0,0,1-11.42-32.27A83.09,83.09,0,0,1,59,125.2,81.48,81.48,0,0,1,72.92,96,83.24,83.24,0,0,1,98.35,73.72q17.28-10,33.56-11.6a88.67,88.67,0,0,1,32,2.6l-5.72,21.35a55.53,55.53,0,0,0-23.83-2.34,64.66,64.66,0,0,0-25.22,8.73,61,61,0,0,0-18.48,16.08,56.42,56.42,0,0,0-10,21.17,60.41,60.41,0,0,0-.72,24,76.62,76.62,0,0,0,25.73,44.56,60.37,60.37,0,0,0,21.15,11.38,56.31,56.31,0,0,0,23.32,1.94,61.6,61.6,0,0,0,23.38-8.08q13.53-7.82,20.94-18.06a56.76,56.76,0,0,0,9.83-21.92l21.35,5.72a84.65,84.65,0,0,1-14.17,29.56Q201.46,212.4,184.6,222.14Z"/><circle class="cls-2" cx="144.33" cy="143.5" r="137"/></svg>